<svg xmlns="http://www.w3.org/2000/svg" viewBox="0 0 400 400" fill="none">
  <defs>
    <radialGradient id="bowlMetal" cx="50%" cy="50%" r="50%">
      <stop offset="0%" stop-color="#e8e8e8"/>
      <stop offset="70%" stop-color="#c8c8c8"/>
      <stop offset="100%" stop-color="#a0a0a0"/>
    </radialGradient>
    <radialGradient id="bowlInner" cx="50%" cy="45%" r="45%">
      <stop offset="0%" stop-color="#f5f5f5"/>
      <stop offset="100%" stop-color="#d0d0d0"/>
    </radialGradient>
  </defs>
  <circle cx="200" cy="200" r="195" fill="url(#bowlMetal)" stroke="#b8b8b8" stroke-width="2"/>
  <circle cx="200" cy="200" r="175" fill="url(#bowlInner)"/>
  <ellipse cx="155" cy="175" rx="42" ry="35" fill="#8B4513" opacity="0.15"/>
  <ellipse cx="240" cy="190" rx="38" ry="32" fill="#8B4513" opacity="0.12"/>
  <path d="M120 210 Q130 180 155 175 Q170 172 185 185" fill="#C0392B"/>
  <path d="M145 195 Q160 188 175 192 Q185 198 180 210 Q165 218 148 212 Z" fill="#E74C3C"/>
  <path d="M165 200 Q178 195 188 202 Q192 210 185 218 Q172 222 160 215 Z" fill="#C0392B"/>
  <path d="M190 175 Q205 168 220 175 Q228 185 218 195 Q200 200 188 192 Z" fill="#E74C3C"/>
  <path d="M210 195 Q225 188 240 192 Q250 200 242 212 Q225 218 210 210 Z" fill="#C0392B"/>
  <path d="M230 175 Q245 170 258 180 Q262 192 250 200 Q235 205 225 195 Z" fill="#E74C3C"/>
  <path d="M250 200 Q265 195 275 205 Q278 218 265 225 Q248 228 240 215 Z" fill="#922B21"/>
  <ellipse cx="130" cy="230" rx="18" ry="14" fill="#27AE60"/>
  <ellipse cx="148" cy="245" rx="14" ry="11" fill="#2ECC71"/>
  <ellipse cx="165" cy="235" rx="12" ry="10" fill="#1E8449"/>
  <path d="M155 250 Q160 240 168 242 Q172 250 165 258 Q155 260 150 252 Z" fill="#27AE60"/>
  <path d="M175 248 Q182 242 190 246 Q192 254 185 260 Q175 262 170 254 Z" fill="#2ECC71"/>
  <ellipse cx="200" cy="255" rx="16" ry="12" fill="#1E8449"/>
  <path d="M215 240 Q225 235 235 242 Q238 252 228 258 Q215 260 210 250 Z" fill="#27AE60"/>
  <ellipse cx="250" cy="248" rx="14" ry="11" fill="#2ECC71"/>
  <ellipse cx="268" cy="235" rx="12" ry="10" fill="#1E8449"/>
  <ellipse cx="280" cy="250" rx="15" ry="12" fill="#27AE60"/>
  <path d="M290 220 Q300 215 310 222 Q312 232 302 238 Q290 240 285 230 Z" fill="#2ECC71"/>
  <circle cx="220" cy="165" r="22" fill="#E67E22" opacity="0.9"/>
  <circle cx="220" cy="165" r="18" fill="#F39C12"/>
  <circle cx="215" cy="160" r="4" fill="#F5CBA7" opacity="0.6"/>
  <circle cx="225" cy="168" r="3" fill="#F5CBA7" opacity="0.4"/>
  <ellipse cx="175" cy="155" rx="10" ry="8" fill="#2980B9"/>
  <ellipse cx="185" cy="148" rx="8" ry="7" fill="#3498DB"/>
  <path d="M160 160 Q168 152 178 158 Q180 168 170 172 Q158 170 160 160 Z" fill="#2980B9"/>
  <path d="M130 195 Q138 188 148 192 L145 205 Q135 210 128 202 Z" fill="#F5DEB3" stroke="#D4A574" stroke-width="1"/>
  <path d="M135 198 Q140 192 145 195 L143 203 Q138 206 134 202 Z" fill="#FFF8DC"/>
  <ellipse cx="200" cy="200" rx="175" ry="175" fill="none" stroke="#bbb" stroke-width="1" opacity="0.3"/>
</svg>
