<svg xmlns="http://www.w3.org/2000/svg" viewBox="0 0 400 400" fill="none">
  <defs>
    <radialGradient id="bowlMetalK" cx="50%" cy="50%" r="50%">
      <stop offset="0%" stop-color="#e8e8e8"/>
      <stop offset="70%" stop-color="#c8c8c8"/>
      <stop offset="100%" stop-color="#a0a0a0"/>
    </radialGradient>
    <radialGradient id="bowlInnerK" cx="50%" cy="45%" r="45%">
      <stop offset="0%" stop-color="#f5f5f5"/>
      <stop offset="100%" stop-color="#d0d0d0"/>
    </radialGradient>
  </defs>
  <circle cx="200" cy="200" r="195" fill="url(#bowlMetalK)" stroke="#b8b8b8" stroke-width="2"/>
  <circle cx="200" cy="200" r="175" fill="url(#bowlInnerK)"/>
  <ellipse cx="200" cy="200" rx="160" ry="155" fill="#8B6914" opacity="0.08"/>
  <ellipse cx="130" cy="170" rx="9" ry="7" fill="#A0522D" transform="rotate(-15 130 170)"/>
  <ellipse cx="148" cy="158" rx="8" ry="6" fill="#8B4513" transform="rotate(20 148 158)"/>
  <ellipse cx="165" cy="172" rx="9" ry="7" fill="#A0522D" transform="rotate(-8 165 172)"/>
  <ellipse cx="180" cy="155" rx="8" ry="6" fill="#8B4513" transform="rotate(35 180 155)"/>
  <ellipse cx="195" cy="168" rx="9" ry="7" fill="#A0522D" transform="rotate(-22 195 168)"/>
  <ellipse cx="212" cy="152" rx="8" ry="6" fill="#8B4513" transform="rotate(12 212 152)"/>
  <ellipse cx="228" cy="165" rx="9" ry="7" fill="#A0522D" transform="rotate(-30 228 165)"/>
  <ellipse cx="245" cy="158" rx="8" ry="6" fill="#8B4513" transform="rotate(45 245 158)"/>
  <ellipse cx="260" cy="172" rx="9" ry="7" fill="#A0522D" transform="rotate(-5 260 172)"/>
  <ellipse cx="275" cy="160" rx="8" ry="6" fill="#8B4513" transform="rotate(18 275 160)"/>
  <ellipse cx="120" cy="190" rx="9" ry="7" fill="#8B4513" transform="rotate(25 120 190)"/>
  <ellipse cx="138" cy="185" rx="8" ry="6" fill="#A0522D" transform="rotate(-12 138 185)"/>
  <ellipse cx="155" cy="192" rx="9" ry="7" fill="#8B4513" transform="rotate(40 155 192)"/>
  <ellipse cx="172" cy="182" rx="8" ry="6" fill="#A0522D" transform="rotate(-18 172 182)"/>
  <ellipse cx="188" cy="190" rx="9" ry="7" fill="#8B4513" transform="rotate(8 188 190)"/>
  <ellipse cx="205" cy="182" rx="8" ry="6" fill="#A0522D" transform="rotate(-28 205 182)"/>
  <ellipse cx="222" cy="192" rx="9" ry="7" fill="#8B4513" transform="rotate(15 222 192)"/>
  <ellipse cx="238" cy="185" rx="8" ry="6" fill="#A0522D" transform="rotate(-35 238 185)"/>
  <ellipse cx="255" cy="190" rx="9" ry="7" fill="#8B4513" transform="rotate(22 255 190)"/>
  <ellipse cx="270" cy="182" rx="8" ry="6" fill="#A0522D" transform="rotate(-10 270 182)"/>
  <ellipse cx="285" cy="192" rx="9" ry="7" fill="#8B4513" transform="rotate(30 285 192)"/>
  <ellipse cx="125" cy="210" rx="9" ry="7" fill="#A0522D" transform="rotate(-20 125 210)"/>
  <ellipse cx="142" cy="205" rx="8" ry="6" fill="#8B4513" transform="rotate(10 142 205)"/>
  <ellipse cx="158" cy="212" rx="9" ry="7" fill="#A0522D" transform="rotate(-40 158 212)"/>
  <ellipse cx="175" cy="205" rx="8" ry="6" fill="#8B4513" transform="rotate(28 175 205)"/>
  <ellipse cx="192" cy="212" rx="9" ry="7" fill="#A0522D" transform="rotate(-15 192 212)"/>
  <ellipse cx="208" cy="205" rx="8" ry="6" fill="#8B4513" transform="rotate(38 208 205)"/>
  <ellipse cx="225" cy="212" rx="9" ry="7" fill="#A0522D" transform="rotate(-25 225 212)"/>
  <ellipse cx="242" cy="205" rx="8" ry="6" fill="#8B4513" transform="rotate(5 242 205)"/>
  <ellipse cx="258" cy="212" rx="9" ry="7" fill="#A0522D" transform="rotate(-32 258 212)"/>
  <ellipse cx="275" cy="205" rx="8" ry="6" fill="#8B4513" transform="rotate(42 275 205)"/>
  <ellipse cx="290" cy="210" rx="9" ry="7" fill="#A0522D" transform="rotate(-8 290 210)"/>
  <ellipse cx="115" cy="230" rx="9" ry="7" fill="#8B4513" transform="rotate(15 115 230)"/>
  <ellipse cx="132" cy="225" rx="8" ry="6" fill="#A0522D" transform="rotate(-22 132 225)"/>
  <ellipse cx="148" cy="232" rx="9" ry="7" fill="#8B4513" transform="rotate(32 148 232)"/>
  <ellipse cx="165" cy="225" rx="8" ry="6" fill="#A0522D" transform="rotate(-5 165 225)"/>
  <ellipse cx="182" cy="232" rx="9" ry="7" fill="#8B4513" transform="rotate(18 182 232)"/>
  <ellipse cx="198" cy="225" rx="8" ry="6" fill="#A0522D" transform="rotate(-38 198 225)"/>
  <ellipse cx="215" cy="232" rx="9" ry="7" fill="#8B4513" transform="rotate(25 215 232)"/>
  <ellipse cx="232" cy="225" rx="8" ry="6" fill="#A0522D" transform="rotate(-12 232 225)"/>
  <ellipse cx="248" cy="232" rx="9" ry="7" fill="#8B4513" transform="rotate(35 248 232)"/>
  <ellipse cx="265" cy="225" rx="8" ry="6" fill="#A0522D" transform="rotate(-28 265 225)"/>
  <ellipse cx="282" cy="232" rx="9" ry="7" fill="#8B4513" transform="rotate(8 282 232)"/>
  <ellipse cx="295" cy="225" rx="8" ry="6" fill="#A0522D" transform="rotate(-18 295 225)"/>
  <ellipse cx="130" cy="250" rx="9" ry="7" fill="#A0522D" transform="rotate(-30 130 250)"/>
  <ellipse cx="155" cy="248" rx="8" ry="6" fill="#8B4513" transform="rotate(20 155 248)"/>
  <ellipse cx="180" cy="252" rx="9" ry="7" fill="#A0522D" transform="rotate(-10 180 252)"/>
  <ellipse cx="205" cy="248" rx="8" ry="6" fill="#8B4513" transform="rotate(28 205 248)"/>
  <ellipse cx="230" cy="252" rx="9" ry="7" fill="#A0522D" transform="rotate(-35 230 252)"/>
  <ellipse cx="255" cy="248" rx="8" ry="6" fill="#8B4513" transform="rotate(12 255 248)"/>
  <ellipse cx="280" cy="252" rx="9" ry="7" fill="#A0522D" transform="rotate(-22 280 252)"/>
  <ellipse cx="200" cy="265" rx="9" ry="7" fill="#8B4513" transform="rotate(40 200 265)"/>
  <ellipse cx="170" cy="268" rx="8" ry="6" fill="#A0522D" transform="rotate(-15 170 268)"/>
  <ellipse cx="230" cy="268" rx="8" ry="6" fill="#A0522D" transform="rotate(25 230 268)"/>
</svg>
